Goon 2011 VODRip XVID-QP
 
 
  
http://www.imdb.com/title/tt1456635/
 Labeled an outcast by his brainy family, a bouncer overcomes long odds to lead a team of under performing misfits to semi-pro hockey glory, beating the crap out of everything that stands in his way.
 
 
 Format                                   : AVI
 Format/Info                              : Audio Video Interleave
 Format profile                           : OpenDML
 File size                                : 1.51 GiB
 Duration                                 : 1h 31mn
 Overall bit rate mode                    : Variable
 Overall bit rate                         : 2 360 Kbps
 Writing application                      : MEncoder SVN-r33823-4.1.2
 Writing library                          : MPlayer
 
 Video
 ID                                       : 0
 Format                                   : xvid
 Codec ID                                 : xvid
 Duration                                 : 1h 31mn
 Bit rate                                 : 2 222 Kbps
 Width                                    : 624 pixels
 Height                                   : 336 pixels
 Display aspect ratio                     : 1.857
 Frame rate                               : 23.976 fps
 Bits/(Pixel*Frame)                       : 0.442
 Stream size                              : 1.42 GiB (94%)
 
 Audio
 ID                                       : 1
 Format                                   : MPEG Audio
 Format version                           : Version 1
 Format profile                           : Layer 3
 Mode                                     : Joint stereo
 Mode extension                           : MS Stereo
 Codec ID                                 : 55
 Codec ID/Hint                            : MP3
 Duration                                 : 1h 31mn
 Bit rate mode                            : Variable
 Bit rate                                 : 123 Kbps
 Channel(s)                               : 2 channels
 Sampling rate                            : 48.0 KHz
 Compression mode                         : Lossy
 Stream size                              : 80.7 MiB (5%)
 Alignment                                : Aligned on interleaves
 Interleave, duration                     : 24 ms (0.58 video frame)
 Interleave, preload duration             : 482 ms